HIERARCHY
ROOT Hips
{
  OFFSET 0 89.5177 0.535
  CHANNELS 6 Xposition Yposition Zposition Zrotation Xrotation Yrotation
  JOINT Spine
  {
    OFFSET 12.0259 -0.162855 1.69034e-005
    CHANNELS 3 Zrotation Xrotation Yrotation
    JOINT Spine1
    {
      OFFSET 15.3169 -0.0121922 0
      CHANNELS 3 Zrotation Xrotation Yrotation
      JOINT Spine2
      {
        OFFSET 15.3176 -0.0121908 0
        CHANNELS 3 Zrotation Xrotation Yrotation
        JOINT Neck
        {
          OFFSET 19.9142 1.56338 0
          CHANNELS 3 Zrotation Xrotation Yrotation
          JOINT Head
          {
            OFFSET 6.92651 0 0
            CHANNELS 3 Zrotation Xrotation Yrotation
            End Site
            {
              OFFSET 20.7666 0 0
            }
          }
          JOINT LeftShoulder
          {
            OFFSET -6.20654 0.708824 7.28219
            CHANNELS 3 Zrotation Xrotation Yrotation
            JOINT LeftArm
            {
              OFFSET 14.108 0 -1.52588e-005
              CHANNELS 3 Zrotation Xrotation Yrotation
              JOINT LeftForeArm
              {
                OFFSET 28.5802 0 0
                CHANNELS 3 Zrotation Xrotation Yrotation
                JOINT LeftHand
                {
                  OFFSET 27.092 0 0
                  CHANNELS 3 Zrotation Xrotation Yrotation
                  End Site
                  {
                    OFFSET 9.55928 -0.186424 0.145352
                  }
                }
              }
            }
          }
          JOINT RightShoulder
          {
            OFFSET -6.20654 0.708866 -7.28218
            CHANNELS 3 Zrotation Xrotation Yrotation
            JOINT RightArm
            {
              OFFSET 14.108 0 1.52588e-005
              CHANNELS 3 Zrotation Xrotation Yrotation
              JOINT RightForeArm
              {
                OFFSET 28.5802 0 0
                CHANNELS 3 Zrotation Xrotation Yrotation
                JOINT RightHand
                {
                  OFFSET 27.092 0 0
                  CHANNELS 3 Zrotation Xrotation Yrotation
                  End Site
                  {
                    OFFSET 9.55929 -0.186417 -0.145354
                  }
                }
              }
            }
          }
        }
      }
    }
  }
  JOINT LeftUpLeg
  {
    OFFSET 0.005 -0.535 8.837
    CHANNELS 3 Zrotation Xrotation Yrotation
    JOINT LeftLeg
    {
      OFFSET 39.9035 0 0
      CHANNELS 3 Zrotation Xrotation Yrotation
      JOINT LeftFoot
      {
        OFFSET 39.6689 0 0
        CHANNELS 3 Zrotation Xrotation Yrotation
        JOINT LeftToe
        {
          OFFSET 10.1624 13.6296 0
          CHANNELS 3 Zrotation Xrotation Yrotation
          End Site
          {
            OFFSET 8.38147 0 0
          }
        }
      }
    }
  }
  JOINT RightUpLeg
  {
    OFFSET 0.005 -0.535 -8.837
    CHANNELS 3 Zrotation Xrotation Yrotation
    JOINT RightLeg
    {
      OFFSET 39.9035 0 0
      CHANNELS 3 Zrotation Xrotation Yrotation
      JOINT RightFoot
      {
        OFFSET 39.6689 0 0
        CHANNELS 3 Zrotation Xrotation Yrotation
        JOINT RightToe
        {
          OFFSET 10.1624 13.6296 0
          CHANNELS 3 Zrotation Xrotation Yrotation
          End Site
          {
            OFFSET 8.38147 0 0
          }
        }
      }
    }
  }
}
MOTION
Frames:	6
Frame Time:	0.0333333
405.589 87.4192 12.8199 88.1959 -80.1627 5.84933 0.511594 -0.6484 -0.656364 1.01583 -1.30212 -1.30688 1.01583 -1.30212 -1.30688 -8.30708e-012 -9.0191e-006 -5.27751e-005 2.60485 14.1859 -7.21182 -178.431 -9.7922 -80.8494 61.547 -69.7361 60.3935 -3.99718 -1.59028e-015 6.36111e-015 -40.1156 -22.0171 -36.3913 -179.854 3.15289 87.3467 56.3243 54.0619 -52.0217 -20.5602 0 1.98785e-015 -42.6619 31.3176 46.707 -4.88146 1.7192 166.802 -21.5898 -1.59028e-015 -1.98785e-015 21.0585 12.0932 -0.781619 90 -1.01877e-015 3.97569e-016 -18.6411 -13.1979 155.277 -44.9407 1.59028e-015 -3.18056e-015 16.3735 7.79537 -3.52887 90 2.38542e-015 -3.18055e-015 
405.566 87.4132 12.8209 87.9324 -80.1885 5.59624 0.507158 -0.657104 -0.676374 1.00663 -1.31965 -1.34687 1.00663 -1.31965 -1.34688 -8.30748e-012 -9.0191e-006 -5.27751e-005 2.70447 14.6003 -7.03095 -178.423 -9.88638 -80.8889 61.1972 -69.7266 60.0512 -4.0172 0 -3.18055e-015 -40.1088 -21.978 -36.3489 -179.854 3.06474 87.2692 56.1727 53.9795 -51.9349 -20.6509 0 2.38542e-015 -42.4674 31.3372 46.5521 -4.82904 1.76945 166.782 -21.6056 -1.59028e-015 -3.97569e-016 21.0666 12.0892 -0.769129 90 5.2181e-016 -0 -18.6262 -13.1654 155.258 -44.9879 4.77083e-015 -0 16.3643 7.8173 -3.5431 90 3.18055e-015 3.18055e-015 
405.548 87.4089 12.8293 87.6989 -80.1979 5.36722 0.518099 -0.656141 -0.676158 1.02853 -1.31785 -1.34632 1.02853 -1.31785 -1.34633 -8.30708e-012 -9.0191e-006 -5.27751e-005 2.70294 14.9715 -6.89696 -178.411 -9.94216 -80.8731 61.2076 -69.7475 60.1266 -4.00323 -1.59028e-015 3.18055e-015 -40.1267 -21.9084 -36.2888 -179.856 3.04017 87.2793 56.0914 53.9808 -51.9172 -20.6902 -6.36111e-015 -0 -42.4646 31.2673 46.4721 -4.80734 1.79364 166.769 -21.6468 0 7.95139e-016 21.0975 12.1227 -0.771228 90 9.93923e-016 -1.98785e-016 -18.621 -13.0964 155.265 -45.0748 -1.59028e-015 3.97569e-015 16.3454 7.88534 -3.60145 90 -7.95139e-016 3.18055e-015 
405.524 87.4028 12.8415 87.463 -80.185 5.14696 0.535152 -0.637531 -0.673304 1.06288 -1.28081 -1.34059 1.06288 -1.28081 -1.34059 -8.30708e-012 -9.0191e-006 -5.27751e-005 2.68544 15.2567 -6.76327 -178.428 -9.82108 -80.8582 60.9871 -69.6904 59.9068 -3.99326 0 6.36111e-015 -40.1796 -21.7992 -36.268 -179.857 3.11365 87.3733 56.1256 53.9869 -52.0274 -20.6816 6.36111e-015 5.96354e-016 -42.3912 31.3038 46.4661 -4.78297 1.85143 166.748 -21.6942 1.59028e-015 7.95139e-016 21.1288 12.1575 -0.78248 90 -7.20594e-016 -3.97569e-016 -18.6302 -13.0155 155.258 -45.1935 -4.77083e-015 1.59028e-015 16.326 7.98738 -3.69498 90 -1.59028e-015 3.18055e-015 
405.506 87.3966 12.8645 87.377 -80.1514 5.07916 0.535666 -0.63846 -0.684024 1.06378 -1.28277 -1.36201 1.06378 -1.28277 -1.36202 -8.30629e-012 -9.0191e-006 -5.27751e-005 2.72633 15.7168 -6.56089 -178.442 -9.77977 -80.9046 60.9713 -69.7429 59.8437 -3.93228 -1.59028e-015 3.18055e-015 -40.1916 -21.6413 -36.1851 -179.858 3.10615 87.3889 56.1182 54.0098 -52.0345 -20.6557 0 1.78906e-015 -42.3081 31.3301 46.4354 -4.80648 1.78858 166.706 -21.714 -1.59028e-015 -0 21.123 12.1509 -0.740384 90 -1.83876e-015 3.97569e-016 -18.6702 -12.9002 155.262 -45.3447 -1.59028e-015 -0 16.3042 8.11652 -3.81192 90 3.97569e-015 -3.18055e-015 
405.492 87.3923 12.8853 87.2171 -80.0948 4.93001 0.536392 -0.633702 -0.686359 1.07861 -1.27336 -1.36664 1.07861 -1.27337 -1.36665 -8.30828e-012 -9.0191e-006 -5.27751e-005 2.73368 16.1826 -6.30132 -178.458 -9.68772 -80.9141 61.2362 -69.8869 60.0421 -3.87965 -1.59028e-015 -0 -40.2121 -21.5505 -36.065 -179.858 3.15799 87.4241 56.0159 54.0126 -51.9377 -20.6415 0 -9.93923e-016 -42.3216 31.3809 46.4583 -4.80193 1.81463 166.69 -21.7586 0 -2.38542e-015 21.173 12.1873 -0.73314 90 1.14301e-015 -3.97569e-016 -18.6897 -12.7947 155.27 -45.4965 -1.59028e-015 -7.95139e-016 16.2847 8.28035 -3.97106 90 -2.38542e-015 -3.18055e-015 
